<svg width="21" height="24" viewBox="0 0 21 24" fill="none" xmlns="http://www.w3.org/2000/svg">
<path fill-rule="evenodd" clip-rule="evenodd" d="M2.02305 0H2.0201C1.48481 0.00178193 0.97189 0.245578 0.593378 0.678163C0.21488 1.11073 0.00154551 1.69694 0 2.30869V2.31208V22.8277V24H1.02578H5.0149V21.6554H2.05156V2.34464H15.9566V13.7097H18.0081V2.31208V2.30869C18.0065 1.69692 17.7933 1.11073 17.4147 0.678163C17.0363 0.245578 16.5232 0.00178193 15.988 0H15.985H2.02305ZM5.0149 8.04342H12.9932V5.69878H5.0149V8.04342ZM10.0013 12.6024H5.0149V10.2578H10.0013V12.6024ZM9.03254 21.6554V18.3013H18.9484V21.6554H9.03254ZM9.00405 15.9566C8.4675 15.9566 7.95293 16.2002 7.57352 16.6338C7.19412 17.0674 6.98098 17.6554 6.98098 18.2686V21.6879C6.98098 22.3011 7.19412 22.8893 7.57352 23.3229C7.95293 23.7565 8.4675 24 9.00405 24H19.9742H21V22.8277V18.2686C21 17.6554 20.7868 17.0674 20.4074 16.6338C20.028 16.2002 19.5134 15.9566 18.9769 15.9566H9.00405Z" fill="white"/>
</svg>
