<svg width="27" height="30" viewBox="0 0 27 30" fill="none" xmlns="http://www.w3.org/2000/svg">
<path fill-rule="evenodd" clip-rule="evenodd" d="M22.1506 10.3257C22.1506 5.97479 18.7693 2.47184 14.4827 1.89284V0H11.9562V1.89535C7.67873 2.4819 4.30714 5.98079 4.30689 10.3252L4.29931 18.022H2.85426C1.27789 18.022 0 19.3 0 20.8763V23.4656C0 24.1719 0.57262 24.7448 1.2792 24.7448H25.1608C25.8674 24.7448 26.44 24.1719 26.44 23.4656V20.8763C26.44 19.3 25.162 18.022 23.5856 18.022H22.1431L22.1506 10.3257ZM13.2288 4.33536C9.63121 4.33536 6.83348 7.08112 6.83348 10.3257L6.82465 19.2866C6.82397 19.9838 6.25857 20.5486 5.56136 20.5486H2.85426C2.67329 20.5486 2.52659 20.6953 2.52659 20.8763V22.2182H23.9134V20.8763C23.9134 20.6953 23.7667 20.5486 23.5856 20.5486H20.8785C20.5433 20.5486 20.2217 20.4153 19.9847 20.1781C19.7478 19.941 19.6149 19.6193 19.6152 19.284L19.624 10.3257C19.624 7.08112 16.8263 4.33536 13.2288 4.33536ZM13.2138 30.0033C11.5524 30.0033 10.2054 28.6564 10.2054 26.9949H16.2221C16.2221 28.6564 14.8753 30.0033 13.2138 30.0033Z" fill="black" fill-opacity="0.51"/>
</svg>
