<svg width="39" height="33" viewBox="0 0 39 33" fill="none" xmlns="http://www.w3.org/2000/svg">
<path d="M7.21498 12.285V28.665H31.785V6.14248H27.69V7.16623C27.69 7.46483 27.594 7.7101 27.4021 7.90206C27.2101 8.09401 26.9648 8.18999 26.6662 8.18999C26.3676 8.18999 26.1224 8.09401 25.9304 7.90206C25.7385 7.7101 25.6425 7.46483 25.6425 7.16623V6.14248H13.3575V7.16623C13.3575 7.46483 13.2615 7.7101 13.0696 7.90206C12.8776 8.09401 12.6323 8.18999 12.3337 8.18999C12.0351 8.18999 11.7899 8.09401 11.5979 7.90206C11.406 7.7101 11.31 7.46483 11.31 7.16623V6.14248H7.21498V10.2375H31.785V12.285H7.21498ZM13.3575 4.09498H25.6425V3.07123C25.6425 2.77264 25.7385 2.52737 25.9304 2.33541C26.1224 2.14346 26.3676 2.04749 26.6662 2.04749C26.9648 2.04749 27.2101 2.14346 27.4021 2.33541C27.594 2.52737 27.69 2.77264 27.69 3.07123V4.09498H32.8087C33.1073 4.09498 33.3526 4.19096 33.5446 4.38291C33.7365 4.57487 33.8325 4.82014 33.8325 5.11873V29.6887C33.8325 29.9873 33.7365 30.2326 33.5446 30.4246C33.3526 30.6165 33.1073 30.7125 32.8087 30.7125H6.19123C5.89264 30.7125 5.64736 30.6165 5.45541 30.4246C5.26346 30.2326 5.16748 29.9873 5.16748 29.6887V5.11873C5.16748 4.82014 5.26346 4.57487 5.45541 4.38291C5.64736 4.19096 5.89264 4.09498 6.19123 4.09498H11.31V3.07123C11.31 2.77264 11.406 2.52737 11.5979 2.33541C11.7899 2.14346 12.0351 2.04749 12.3337 2.04749C12.6323 2.04749 12.8776 2.14346 13.0696 2.33541C13.2615 2.52737 13.3575 2.77264 13.3575 3.07123V4.09498ZM12.3337 16.38H14.3812C14.6798 16.38 14.9251 16.476 15.1171 16.6679C15.309 16.8599 15.405 17.1051 15.405 17.4037C15.405 17.7023 15.309 17.9476 15.1171 18.1396C14.9251 18.3315 14.6798 18.4275 14.3812 18.4275H12.3337C12.0351 18.4275 11.7899 18.3315 11.5979 18.1396C11.406 17.9476 11.31 17.7023 11.31 17.4037C11.31 17.1051 11.406 16.8599 11.5979 16.6679C11.7899 16.476 12.0351 16.38 12.3337 16.38ZM12.3337 22.5225H14.3812C14.6798 22.5225 14.9251 22.6185 15.1171 22.8104C15.309 23.0024 15.405 23.2476 15.405 23.5462C15.405 23.8448 15.309 24.0901 15.1171 24.2821C14.9251 24.474 14.6798 24.57 14.3812 24.57H12.3337C12.0351 24.57 11.7899 24.474 11.5979 24.2821C11.406 24.0901 11.31 23.8448 11.31 23.5462C11.31 23.2476 11.406 23.0024 11.5979 22.8104C11.7899 22.6185 12.0351 22.5225 12.3337 22.5225ZM18.4762 16.38H20.5237C20.8223 16.38 21.0676 16.476 21.2596 16.6679C21.4515 16.8599 21.5475 17.1051 21.5475 17.4037C21.5475 17.7023 21.4515 17.9476 21.2596 18.1396C21.0676 18.3315 20.8223 18.4275 20.5237 18.4275H18.4762C18.1776 18.4275 17.9324 18.3315 17.7404 18.1396C17.5485 17.9476 17.4525 17.7023 17.4525 17.4037C17.4525 17.1051 17.5485 16.8599 17.7404 16.6679C17.9324 16.476 18.1776 16.38 18.4762 16.38ZM18.4762 22.5225H20.5237C20.8223 22.5225 21.0676 22.6185 21.2596 22.8104C21.4515 23.0024 21.5475 23.2476 21.5475 23.5462C21.5475 23.8448 21.4515 24.0901 21.2596 24.2821C21.0676 24.474 20.8223 24.57 20.5237 24.57H18.4762C18.1776 24.57 17.9324 24.474 17.7404 24.2821C17.5485 24.0901 17.4525 23.8448 17.4525 23.5462C17.4525 23.2476 17.5485 23.0024 17.7404 22.8104C17.9324 22.6185 18.1776 22.5225 18.4762 22.5225ZM24.6187 16.38H26.6662C26.9648 16.38 27.2101 16.476 27.4021 16.6679C27.594 16.8599 27.69 17.1051 27.69 17.4037C27.69 17.7023 27.594 17.9476 27.4021 18.1396C27.2101 18.3315 26.9648 18.4275 26.6662 18.4275H24.6187C24.3201 18.4275 24.0749 18.3315 23.8829 18.1396C23.691 17.9476 23.595 17.7023 23.595 17.4037C23.595 17.1051 23.691 16.8599 23.8829 16.6679C24.0749 16.476 24.3201 16.38 24.6187 16.38ZM24.6187 22.5225H26.6662C26.9648 22.5225 27.2101 22.6185 27.4021 22.8104C27.594 23.0024 27.69 23.2476 27.69 23.5462C27.69 23.8448 27.594 24.0901 27.4021 24.2821C27.2101 24.474 26.9648 24.57 26.6662 24.57H24.6187C24.3201 24.57 24.0749 24.474 23.8829 24.2821C23.691 24.0901 23.595 23.8448 23.595 23.5462C23.595 23.2476 23.691 23.0024 23.8829 22.8104C24.0749 22.6185 24.3201 22.5225 24.6187 22.5225Z" fill="black" fill-opacity="0.5"/>
</svg>
