<svg width="28" height="29" viewBox="0 0 28 29" fill="none" xmlns="http://www.w3.org/2000/svg">
<path d="M16.8438 16.8041H3.71875C3.59844 16.8041 3.5 16.9025 3.5 17.0228V18.5541C3.5 18.6744 3.59844 18.7728 3.71875 18.7728H16.8438C16.9641 18.7728 17.0625 18.6744 17.0625 18.5541V17.0228C17.0625 16.9025 16.9641 16.8041 16.8438 16.8041ZM17.0625 11.2259C17.0625 11.1056 16.9641 11.0072 16.8438 11.0072H3.71875C3.59844 11.0072 3.5 11.1056 3.5 11.2259V12.7572C3.5 12.8775 3.59844 12.9759 3.71875 12.9759H16.8438C16.9641 12.9759 17.0625 12.8775 17.0625 12.7572V11.2259ZM3.28125 24.515H24.7188C24.8391 24.515 24.9375 24.4166 24.9375 24.2962V22.765C24.9375 22.6447 24.8391 22.5462 24.7188 22.5462H3.28125C3.16094 22.5462 3.0625 22.6447 3.0625 22.765V24.2962C3.0625 24.4166 3.16094 24.515 3.28125 24.515ZM3.28125 7.23375H24.7188C24.8391 7.23375 24.9375 7.13531 24.9375 7.015V5.48375C24.9375 5.36344 24.8391 5.265 24.7188 5.265H3.28125C3.16094 5.265 3.0625 5.36344 3.0625 5.48375V7.015C3.0625 7.13531 3.16094 7.23375 3.28125 7.23375ZM24.1063 11.3326L19.8324 14.6986C19.8036 14.7212 19.7804 14.7501 19.7644 14.783C19.7484 14.8159 19.7401 14.852 19.7401 14.8886C19.7401 14.9252 19.7484 14.9614 19.7644 14.9943C19.7804 15.0272 19.8036 15.0561 19.8324 15.0787L24.1063 18.4474C24.2648 18.5732 24.5 18.4611 24.5 18.2587V11.524C24.5 11.4783 24.4872 11.4336 24.463 11.3948C24.4387 11.3561 24.4041 11.325 24.363 11.305C24.322 11.2851 24.2761 11.2771 24.2307 11.2819C24.1853 11.2868 24.1422 11.3044 24.1063 11.3326Z" fill="black"/>
</svg>
