<svg width="16" height="16" viewBox="0 0 16 16" fill="none" xmlns="http://www.w3.org/2000/svg">
    <path d="M15.5 11.7833V14.2833C15.5001 14.5214 15.4352 14.7547 15.3125 14.9583C15.1897 15.1619 15.0135 15.3284 14.8023 15.4403C14.5911 15.5523 14.3524 15.6058 14.1143 15.5957C13.8762 15.5857 13.6433 15.5124 13.4417 15.3833C11.2926 14.1514 9.3843 12.4705 7.8833 10.4417C6.48826 8.53283 5.49418 6.32679 4.9667 3.9833C4.83758 3.78168 4.76425 3.54881 4.75421 3.31071C4.74417 3.07261 4.7977 2.83389 4.90967 2.62267C5.02164 2.41145 5.18813 2.23525 5.39173 2.11248C5.59532 1.98972 5.82864 1.92485 6.0667 1.925H8.5667C8.99251 1.92111 9.4042 2.07929 9.71614 2.36859C10.0281 2.65789 10.2198 3.05878 10.25 3.4833C10.3118 4.42674 10.4904 5.35774 10.7833 6.25C10.9038 6.61723 10.9048 7.01325 10.7864 7.38131C10.668 7.74938 10.4362 8.06827 10.125 8.3L9.1917 9.2333C10.5844 11.0595 12.4072 12.4823 14.2333 13.875L15.1667 12.9417C15.3984 12.6305 15.7173 12.3987 16.0854 12.2803C16.4534 12.1619 16.8494 12.1629 17.2167 12.2833C18.1089 12.5763 19.0399 12.7549 19.9833 12.8167C20.4137 12.8469 20.8194 13.0424 21.1098 13.3604C21.4002 13.6784 21.5553 14.0973 21.5443 14.5292L15.5 11.7833ZM15.5 11.7833V14.2833C15.5001 14.5214 15.4352 14.7547 15.3125 14.9583C15.1897 15.1619 15.0135 15.3284 14.8023 15.4403C14.5911 15.5523 14.3524 15.6058 14.1143 15.5957C13.8762 15.5857 13.6433 15.5124 13.4417 15.3833C11.2926 14.1514 9.3843 12.4705 7.8833 10.4417C6.48826 8.53283 5.49418 6.32679 4.9667 3.9833C4.83758 3.78168 4.76425 3.54881 4.75421 3.31071C4.74417 3.07261 4.7977 2.83389 4.90967 2.62267C5.02164 2.41145 5.18813 2.23525 5.39173 2.11248C5.59532 1.98972 5.82864 1.92485 6.0667 1.925H8.5667C8.99251 1.92111 9.4042 2.07929 9.71614 2.36859C10.0281 2.65789 10.2198 3.05878 10.25 3.4833C10.3118 4.42674 10.4904 5.35774 10.7833 6.25C10.9038 6.61723 10.9048 7.01325 10.7864 7.38131C10.668 7.74938 10.4362 8.06827 10.125 8.3L9.1917 9.2333C10.5844 11.0595 12.4072 12.4823 14.2333 13.875L15.1667 12.9417C15.3984 12.6305 15.7173 12.3987 16.0854 12.2803C16.4534 12.1619 16.8494 12.1629 17.2167 12.2833C18.1089 12.5763 19.0399 12.7549 19.9833 12.8167C20.4137 12.8469 20.8194 13.0424 21.1098 13.3604C21.4002 13.6784 21.5553 14.0973 21.5443 14.5292" stroke="#4A5568" stroke-width="1.5" stroke-linecap="round" stroke-linejoin="round"/>
</svg> 