<svg width="22" height="24" viewBox="0 0 22 24" fill="none" xmlns="http://www.w3.org/2000/svg">
<path fill-rule="evenodd" clip-rule="evenodd" d="M13.0209 2.14427C12.116 2.14427 11.2201 2.30529 10.3842 2.61813C9.54828 2.93098 8.78876 3.38951 8.14901 3.96756L6.47064 2.45142C7.33081 1.67422 8.35198 1.05773 9.47588 0.637106C10.5998 0.216486 11.8044 0 13.0209 0C14.2374 0 15.442 0.216486 16.5659 0.637106C17.6898 1.05773 18.711 1.67422 19.5711 2.45142L17.8928 3.96756C17.253 3.38951 16.4936 2.93098 15.6576 2.61813C14.8217 2.30529 13.9257 2.14427 13.0209 2.14427ZM12.9905 6.1469C12.7242 6.1401 12.4589 6.18075 12.2098 6.26657C11.9609 6.35238 11.7331 6.48167 11.5394 6.64705L11.5375 6.64869L2.1407 14.6317C2.13146 14.6397 2.12358 14.6495 2.11835 14.6601C2.11305 14.6708 2.11012 14.6824 2.10975 14.6941C2.10938 14.7059 2.11157 14.7176 2.11621 14.7284C2.12083 14.7395 2.12781 14.7495 2.13675 14.758L3.87003 16.4156L14.8166 7.11081L14.4084 6.72073C14.2253 6.54571 14.0057 6.40469 13.7625 6.30628C13.5192 6.20787 13.257 6.15372 12.9905 6.1469ZM16.4473 8.66883L5.49994 17.9743L8.98591 21.3079L19.8594 12.0588C19.8689 12.0507 19.8763 12.041 19.8817 12.0304C19.8869 12.0196 19.8899 12.0081 19.8902 11.9964C19.8906 11.9846 19.8885 11.973 19.8838 11.962C19.8792 11.951 19.8722 11.941 19.8633 11.9325L16.4473 8.66883ZM15.9413 5.41116C15.5681 5.05434 15.1208 4.76739 14.6247 4.56673C14.1287 4.36601 13.5937 4.25555 13.0503 4.24164C12.5068 4.22775 11.9658 4.31069 11.4579 4.48572C10.9505 4.66061 10.4862 4.92401 10.0913 5.2609L0.693768 13.2446L0.692075 13.246C0.48114 13.426 0.311535 13.6417 0.192943 13.881C0.0743504 14.1202 0.00908104 14.3782 0.000884797 14.6402C-0.00732726 14.9023 0.041692 15.1632 0.145126 15.408C0.248528 15.6528 0.404257 15.8768 0.603451 16.0672L8.17551 23.3084L8.89868 24L9.66539 23.3479L21.3067 13.4455L21.308 13.4445C21.5189 13.2645 21.6885 13.0488 21.807 12.8095C21.9257 12.5703 21.9909 12.3123 21.9991 12.0503C22.0073 11.7882 21.9583 11.5273 21.8548 11.2824C21.7515 11.0375 21.5956 10.8135 21.3963 10.623L15.9413 5.41116Z" fill="white"/>
</svg>
