<svg width="24" height="24" viewBox="0 0 24 24" fill="none" xmlns="http://www.w3.org/2000/svg">
    <path d="M20.4054 3.4875C18.1607 1.2375 15.1714 0 11.9946 0C5.4375 0 0.101786 5.33571 0.101786 11.8929C0.101786 13.9821 0.648214 16.0179 1.6875 17.8393L0 24L6.30536 22.3393C8.05714 23.2929 9.99643 23.7857 11.9893 23.7857H11.9946C18.5464 23.7857 24 18.45 24 11.8929C24 8.71607 22.65 5.7375 20.4054 3.4875ZM11.9946 21.7875C10.2161 21.7875 8.475 21.3161 6.93214 20.4214L6.57857 20.2071L2.84464 21.1875L3.84643 17.5446L3.60536 17.1804C2.61429 15.5786 2.10536 13.7625 2.10536 11.8929C2.10536 6.44464 6.54643 2.00357 12 2.00357C14.6411 2.00357 17.1214 3.02679 18.9857 4.89643C20.85 6.76607 21.9964 9.24643 21.9911 11.8929C21.9964 17.3411 17.4429 21.7875 11.9946 21.7875ZM17.4161 14.3839C17.1214 14.2339 15.6589 13.5161 15.3857 13.4196C15.1125 13.3179 14.9143 13.2696 14.7161 13.5696C14.5179 13.8696 13.95 14.5339 13.7732 14.7375C13.6018 14.9357 13.425 14.9625 13.1304 14.8125C11.3839 13.9393 10.2375 13.2536 9.08571 11.2768C8.78036 10.7518 9.39107 10.7893 9.95357 9.66429C10.05 9.46607 10.0018 9.29464 9.92679 9.14464C9.85179 8.99464 9.25179 7.53214 9.00536 6.93751C8.76429 6.35893 8.51786 6.44464 8.33571 6.43393C8.16429 6.42321 7.96607 6.42321 7.76786 6.42321C7.56964 6.42321 7.24821 6.49821 6.975 6.80357C6.70179 7.10893 5.93036 7.82679 5.93036 9.28929C5.93036 10.7518 7.00179 12.1607 7.15179 12.3589C7.30714 12.5571 9.24643 15.5786 12.2464 16.8643C14.1857 17.6786 14.9357 17.7375 15.9 17.5929C16.4786 17.5071 17.6571 16.8696 17.9036 16.1732C18.15 15.4768 18.15 14.8821 18.075 14.7375C18.0054 14.5821 17.8071 14.5339 17.4161 14.3839Z" fill="white"/>
</svg> 