<svg width="25" height="26" viewBox="0 0 25 26" fill="none" xmlns="http://www.w3.org/2000/svg">
<path d="M22.6562 11.6328H13.0859V8.89844H14.0625C14.4251 8.89844 14.7729 8.7544 15.0292 8.498C15.2856 8.2416 15.4297 7.89385 15.4297 7.53125V4.40625C15.4297 4.04365 15.2856 3.6959 15.0292 3.4395C14.7729 3.18311 14.4251 3.03906 14.0625 3.03906H10.9375C10.5749 3.03906 10.2271 3.18311 9.97075 3.4395C9.71435 3.6959 9.57031 4.04365 9.57031 4.40625V7.53125C9.57031 7.89385 9.71435 8.2416 9.97075 8.498C10.2271 8.7544 10.5749 8.89844 10.9375 8.89844H11.9141V11.6328H2.34375C2.18835 11.6328 2.03931 11.6945 1.92943 11.8044C1.81954 11.9143 1.75781 12.0633 1.75781 12.2188C1.75781 12.3742 1.81954 12.5232 1.92943 12.6331C2.03931 12.743 2.18835 12.8047 2.34375 12.8047H5.66406V16.3203H4.6875C4.3249 16.3203 3.97715 16.4644 3.72075 16.7208C3.46436 16.9771 3.32031 17.3249 3.32031 17.6875V20.8125C3.32031 21.1751 3.46436 21.5229 3.72075 21.7792C3.97715 22.0356 4.3249 22.1797 4.6875 22.1797H7.8125C8.1751 22.1797 8.52285 22.0356 8.77925 21.7792C9.03565 21.5229 9.17969 21.1751 9.17969 20.8125V17.6875C9.17969 17.3249 9.03565 16.9771 8.77925 16.7208C8.52285 16.4644 8.1751 16.3203 7.8125 16.3203H6.83594V12.8047H18.1641V16.3203H17.1875C16.8249 16.3203 16.4771 16.4644 16.2208 16.7208C15.9644 16.9771 15.8203 17.3249 15.8203 17.6875V20.8125C15.8203 21.1751 15.9644 21.5229 16.2208 21.7792C16.4771 22.0356 16.8249 22.1797 17.1875 22.1797H20.3125C20.6751 22.1797 21.0229 22.0356 21.2792 21.7792C21.5356 21.5229 21.6797 21.1751 21.6797 20.8125V17.6875C21.6797 17.3249 21.5356 16.9771 21.2792 16.7208C21.0229 16.4644 20.6751 16.3203 20.3125 16.3203H19.3359V12.8047H22.6562C22.8117 12.8047 22.9607 12.743 23.0706 12.6331C23.1805 12.5232 23.2422 12.3742 23.2422 12.2188C23.2422 12.0633 23.1805 11.9143 23.0706 11.8044C22.9607 11.6945 22.8117 11.6328 22.6562 11.6328ZM10.7422 7.53125V4.40625C10.7422 4.35445 10.7628 4.30477 10.7994 4.26814C10.836 4.23151 10.8857 4.21094 10.9375 4.21094H14.0625C14.1143 4.21094 14.164 4.23151 14.2006 4.26814C14.2372 4.30477 14.2578 4.35445 14.2578 4.40625V7.53125C14.2578 7.58305 14.2372 7.63273 14.2006 7.66936C14.164 7.70599 14.1143 7.72656 14.0625 7.72656H10.9375C10.8857 7.72656 10.836 7.70599 10.7994 7.66936C10.7628 7.63273 10.7422 7.58305 10.7422 7.53125ZM8.00781 17.6875V20.8125C8.00781 20.8643 7.98724 20.914 7.95061 20.9506C7.91398 20.9872 7.8643 21.0078 7.8125 21.0078H4.6875C4.6357 21.0078 4.58602 20.9872 4.54939 20.9506C4.51276 20.914 4.49219 20.8643 4.49219 20.8125V17.6875C4.49219 17.6357 4.51276 17.586 4.54939 17.5494C4.58602 17.5128 4.6357 17.4922 4.6875 17.4922H7.8125C7.8643 17.4922 7.91398 17.5128 7.95061 17.5494C7.98724 17.586 8.00781 17.6357 8.00781 17.6875ZM20.5078 17.6875V20.8125C20.5078 20.8643 20.4872 20.914 20.4506 20.9506C20.414 20.9872 20.3643 21.0078 20.3125 21.0078H17.1875C17.1357 21.0078 17.086 20.9872 17.0494 20.9506C17.0128 20.914 16.9922 20.8643 16.9922 20.8125V17.6875C16.9922 17.6357 17.0128 17.586 17.0494 17.5494C17.086 17.5128 17.1357 17.4922 17.1875 17.4922H20.3125C20.3643 17.4922 20.414 17.5128 20.4506 17.5494C20.4872 17.586 20.5078 17.6357 20.5078 17.6875Z" fill="white"/>
</svg>
