<svg width="26" height="20" viewBox="0 0 26 20" fill="none" xmlns="http://www.w3.org/2000/svg">
<g clip-path="url(#clip0_31_187)">
<g clip-path="url(#clip1_31_187)">
<path fill-rule="evenodd" clip-rule="evenodd" d="M10.1699 5.50599C10.1699 4.53627 10.9703 3.75015 11.9575 3.75015C12.9447 3.75015 13.7451 4.53627 13.7451 5.50599C13.7451 6.47571 12.9447 7.26183 11.9575 7.26183C10.9703 7.26183 10.1699 6.47571 10.1699 5.50599ZM11.9575 1.91797C9.94008 1.91797 8.30466 3.52438 8.30466 5.50599C8.30466 7.17098 9.45923 8.57109 11.0249 8.97601V11.0252L8.36784 11.6777L3.18508 9.98077L1.95752 9.57884V10.8499V18.2233C1.95747 18.6026 2.07894 18.9724 2.30471 19.2801C2.53048 19.5878 2.84911 19.8179 3.21544 19.9377L8.03563 21.516L8.29328 21.6004L8.55675 21.5357L15.5472 19.819L20.7299 21.516L21.9575 21.918V20.6469V13.2735C21.9575 12.8942 21.836 12.5244 21.6103 12.2167C21.3845 11.909 21.0659 11.6789 20.6996 11.559L15.8793 9.98077L15.6217 9.89641L15.3583 9.96111L12.8901 10.5672V8.97601C14.4557 8.57109 15.6103 7.17098 15.6103 5.50599C15.6103 3.52438 13.9749 1.91797 11.9575 1.91797ZM11.0249 16.1937V12.9138L9.2632 13.3464V19.4736L14.6518 18.1504V12.0232L12.8901 12.4557V16.1937H11.0249ZM16.5171 12.1208V18.2054L20.0922 19.3759V13.2915L16.5171 12.1208ZM7.39792 19.3759V13.2915L3.8228 12.1208V18.2054L7.39792 19.3759Z" fill="white"/>
</g>
</g>
<defs>
<clipPath id="clip0_31_187">
<rect width="20" height="20" fill="white"/>
</clipPath>
<clipPath id="clip1_31_187">
<rect width="20" height="20" fill="white"/>
</clipPath>
</defs>
</svg>
