<svg width="20" height="20" viewBox="0 0 20 20" fill="none" xmlns="http://www.w3.org/2000/svg">
<path d="M16.2398 17.2485C17.5595 15.7742 18.362 13.8271 18.362 11.6927C18.362 7.09034 14.631 3.35938 10.0286 3.35938C5.42627 3.35938 1.69531 7.09034 1.69531 11.6927C1.69531 13.8271 2.49777 15.7742 3.81746 17.2485" stroke="white" stroke-width="2"/>
<path d="M1.05078 11.5625H3.55078" stroke="#F4F4F5" stroke-width="1.5"/>
<path d="M10.2383 2.75V6.25" stroke="#F4F4F5" stroke-width="1.5"/>
<path d="M12.9655 9.18675L10.5955 12.3207" stroke="#F4F4F5" stroke-width="1.5"/>
<path d="M3.24902 5.91498L5.01679 8.68275" stroke="#F4F4F5" stroke-width="1.5"/>
<path d="M16.8018 5.90717L15.034 7.67493" stroke="#F4F4F5" stroke-width="1.5"/>
<path d="M16.4492 11.5625H18.9492" stroke="#F4F4F5" stroke-width="1.5"/>
<path d="M10.03 14.9271C10.9504 14.9271 11.6966 14.1809 11.6966 13.2604C11.6966 12.3399 10.9504 11.5937 10.03 11.5937C9.10947 11.5937 8.36328 12.3399 8.36328 13.2604C8.36328 14.1809 9.10947 14.9271 10.03 14.9271Z" fill="#F4F4F5"/>
</svg>
