<svg width="20" height="20" viewBox="0 0 20 20" fill="none" xmlns="http://www.w3.org/2000/svg">
<path fill-rule="evenodd" clip-rule="evenodd" d="M3.38473 0.5H4.04255H15.9575H16.6152L16.9092 1.05851L19.8879 6.71893L20 6.93194V7.17003C20 8.61256 19.2126 9.84071 18.0115 10.4976V18.4904V19.5H16.9477H2.9477H1.88387V18.4904V10.4165C0.736609 9.72265 0 8.49875 0 7.17003V6.93194L0.112099 6.71893L3.09082 1.05851L3.38473 0.5ZM4.01153 11.0097V17.4807H15.8838V11.0093C14.723 10.9898 13.7087 10.5122 12.996 9.77852C12.2634 10.5403 11.2026 11.0099 9.99888 11.0099C8.80792 11.0099 7.76624 10.5282 7.03867 9.77973C6.30606 10.5409 5.24562 11.0099 4.04255 11.0099C4.03219 11.0099 4.02185 11.0099 4.01153 11.0097ZM14.0426 7.17003L11.9138 7.17002C11.9138 8.2173 11.0982 8.9906 9.99888 8.9906C8.94148 8.9906 8.11356 8.17448 8.08477 7.22135L8.08509 7.17003L5.95633 7.17002L5.95673 7.22345C5.9295 8.24349 5.12303 8.99062 4.04255 8.99062C3.04536 8.99062 2.25227 8.26479 2.14102 7.38273L4.70038 2.51925H15.2996L17.8606 7.3857C17.7567 8.32176 16.9797 8.99062 15.9575 8.99062C14.8811 8.99062 14.0426 8.14499 14.0426 7.17003Z" fill="white"/>
</svg>
