<svg width="20" height="23" viewBox="0 0 20 23" fill="none" xmlns="http://www.w3.org/2000/svg">
<path fill-rule="evenodd" clip-rule="evenodd" d="M6.0406 6.29441C6.0406 4.00434 7.81348 2.14786 10.0004 2.14786C12.1875 2.14786 13.9603 4.00434 13.9603 6.29441C13.9603 8.5803 12.1939 10.4342 10.0124 10.441L9.99998 10.4409H9.98796C7.80674 10.4339 6.0406 8.58013 6.0406 6.29441ZM5.94809 10.9434C4.7445 9.79241 3.98945 8.13575 3.98945 6.29441C3.98945 2.8181 6.68068 0 10.0004 0C13.3202 0 16.0115 2.8181 16.0115 6.29441C16.0115 8.13584 15.2564 9.79258 14.0526 10.9436C15.3263 11.2641 16.5654 11.7356 17.7454 12.3522L17.7473 12.3531L17.9478 12.4569C17.9572 12.4618 17.9666 12.4668 17.9759 12.4721C18.6 12.8204 19.1195 13.3434 19.4767 13.9826C19.8318 14.6182 20.0127 15.3439 19.9993 16.0799V19.8677H17.9482V16.069L17.9484 16.0452C17.9557 15.702 17.8719 15.3635 17.7064 15.0674C17.5433 14.7753 17.307 14.5357 17.0232 14.3742L16.8349 14.2768L16.8312 14.2748C14.7147 13.1687 12.3822 12.5915 10.0169 12.5888H10.0004H9.98357C7.61813 12.5915 5.28543 13.1685 3.16885 14.2748L3.16518 14.2768L2.9768 14.3742C2.69308 14.5357 2.45683 14.7753 2.29367 15.0674C2.12814 15.3635 2.04434 15.702 2.05158 16.0452L2.05183 16.069V19.8677H0.00068344V16.0799C-0.012608 15.3439 0.168194 14.6182 0.523315 13.9826C0.880488 13.3434 1.40002 12.8204 2.0241 12.4721C2.03342 12.4668 2.04282 12.4618 2.05229 12.4569L2.25469 12.3521C3.43483 11.7355 4.67419 11.2639 5.94809 10.9434ZM8.97488 17.7496V14.6471H11.026V17.7496H13.9888V19.8975H11.026V23H8.97488V19.8975H6.01211V17.7496H8.97488Z" fill="#FFFEFE" fill-opacity="0.85"/>
</svg>
