<svg width="17" height="20" viewBox="0 0 17 20" fill="none" xmlns="http://www.w3.org/2000/svg">
<path d="M3.13333 19.5H13.8667C15.959 19.5 17 18.5785 17 16.7262V3.28251C17 1.43922 15.959 0.5 13.8667 0.5H3.13333C1.05134 0.5 0 1.43922 0 3.28289V16.7262C0 18.5782 1.05134 19.5 3.13333 19.5ZM3.21397 18.0734C2.17297 18.0734 1.62704 17.5856 1.62704 16.6997V3.30935C1.62704 2.43214 2.17297 1.92661 3.22432 1.92661H13.786C14.8369 1.92661 15.373 2.42306 15.373 3.30935V16.6997C15.373 17.5856 14.8369 18.0734 13.796 18.0734H3.21397ZM4.67972 5.63095H12.3405C12.6942 5.63095 12.9671 5.38291 12.9671 5.07286C12.9671 4.7715 12.6946 4.54123 12.3405 4.54123H4.67972C4.30541 4.54123 4.04279 4.7715 4.04279 5.07286C4.04279 5.38291 4.30585 5.63095 4.67972 5.63095ZM4.67972 8.72388H12.3405C12.6942 8.72388 12.9671 8.47584 12.9671 8.16541C12.9671 7.86444 12.6946 7.63379 12.3405 7.63379H4.67972C4.30541 7.63379 4.04279 7.86444 4.04279 8.16541C4.04279 8.47546 4.30585 8.72388 4.67972 8.72388ZM4.67972 11.8168H8.3081C8.66171 11.8168 8.93468 11.5775 8.93468 11.2761C8.93468 10.9661 8.66171 10.7267 8.3081 10.7267H4.67929C4.30498 10.7267 4.04236 10.9661 4.04236 11.2761C4.04236 11.5775 4.30541 11.8168 4.67929 11.8168" fill="white" fill-opacity="0.81"/>
</svg>
